<?xml version="1.0" encoding="UTF-8" ?>
<!DOCTYPE svg PUBLIC "-//W3C//DTD SVG 1.1//EN" "http://www.w3.org/Graphics/SVG/1.1/DTD/svg11.dtd">
<svg width="268pt" height="268pt" viewBox="0 0 268 268" version="1.1" xmlns="http://www.w3.org/2000/svg">
<g id="#ffffffff">
<path fill="#ffffff" opacity="1.00" d=" M 0.00 0.00 L 268.00 0.00 L 268.00 268.00 L 0.00 268.00 L 0.00 0.00 M 46.66 46.66 C 46.67 104.89 46.67 163.11 46.66 221.34 C 104.89 221.33 163.11 221.33 221.34 221.34 C 221.33 163.11 221.33 104.88 221.34 46.66 C 163.11 46.67 104.89 46.67 46.66 46.66 Z" />
<path fill="#ffffff" opacity="1.00" d=" M 73.47 194.51 C 73.52 154.17 73.52 113.83 73.47 73.50 C 113.82 73.50 154.17 73.52 194.53 73.49 C 194.48 113.83 194.49 154.17 194.52 194.52 C 154.17 194.48 113.82 194.50 73.47 194.51 Z" />
</g>
<g id="#000000ff">
<path fill="#000000" opacity="1.00" d=" M 46.66 46.66 C 104.89 46.67 163.11 46.67 221.34 46.66 C 221.33 104.88 221.33 163.11 221.34 221.34 C 163.11 221.33 104.89 221.33 46.66 221.34 C 46.67 163.11 46.67 104.89 46.66 46.66 M 73.47 194.51 C 113.82 194.50 154.17 194.48 194.52 194.52 C 194.49 154.17 194.48 113.83 194.53 73.49 C 154.17 73.52 113.82 73.50 73.47 73.50 C 73.52 113.83 73.52 154.17 73.47 194.51 Z" />
</g>
</svg>
