<?xml version="1.0" encoding="UTF-8" ?>
<!DOCTYPE svg PUBLIC "-//W3C//DTD SVG 1.1//EN" "http://www.w3.org/Graphics/SVG/1.1/DTD/svg11.dtd">
<svg width="268pt" height="268pt" viewBox="0 0 268 268" version="1.1" xmlns="http://www.w3.org/2000/svg">
<g id="#ffffffff">
<path fill="#ffffff" opacity="1.00" d=" M 0.00 0.00 L 268.00 0.00 L 268.00 268.00 L 0.00 268.00 L 0.00 0.00 M 162.93 86.13 C 148.18 75.39 130.25 68.93 111.96 68.48 C 91.06 67.66 69.92 74.46 53.50 87.43 C 38.66 98.89 27.45 115.01 22.10 133.00 C 16.53 151.62 17.10 172.08 23.85 190.32 C 32.39 213.76 51.14 233.24 74.18 242.79 C 91.41 250.03 110.92 251.56 129.12 247.41 C 149.39 242.86 167.89 231.01 180.58 214.58 C 192.20 199.61 199.00 180.93 199.54 161.98 C 200.27 141.75 193.89 121.35 181.79 105.12 C 204.50 82.51 227.15 59.85 249.76 37.14 C 243.35 30.95 237.07 24.62 230.84 18.24 C 208.17 40.84 185.56 63.49 162.93 86.13 Z" />
<path fill="#ffffff" opacity="1.00" d=" M 99.59 95.88 C 112.36 94.01 125.68 96.08 137.24 101.84 C 154.23 110.15 167.12 126.42 171.16 144.91 C 174.79 160.45 172.20 177.31 164.15 191.08 C 156.29 204.64 143.31 215.19 128.33 219.88 C 114.45 224.30 99.03 223.84 85.49 218.43 C 69.90 212.35 56.98 199.83 50.37 184.47 C 43.44 168.66 43.36 150.00 50.16 134.14 C 58.52 113.94 77.95 98.94 99.59 95.88 Z" />
</g>
<g id="#000000ff">
<path fill="#000000" opacity="1.00" d=" M 162.93 86.13 C 185.56 63.49 208.17 40.84 230.84 18.24 C 237.07 24.62 243.35 30.95 249.76 37.14 C 227.15 59.85 204.50 82.51 181.79 105.12 C 193.89 121.35 200.27 141.75 199.54 161.98 C 199.00 180.93 192.20 199.61 180.58 214.58 C 167.89 231.01 149.39 242.86 129.12 247.41 C 110.92 251.56 91.41 250.03 74.18 242.79 C 51.14 233.24 32.39 213.76 23.85 190.32 C 17.10 172.08 16.53 151.62 22.10 133.00 C 27.45 115.01 38.66 98.89 53.50 87.43 C 69.92 74.46 91.06 67.66 111.96 68.48 C 130.25 68.93 148.18 75.39 162.93 86.13 M 99.59 95.88 C 77.95 98.94 58.52 113.94 50.16 134.14 C 43.36 150.00 43.44 168.66 50.37 184.47 C 56.98 199.83 69.90 212.35 85.49 218.43 C 99.03 223.84 114.45 224.30 128.33 219.88 C 143.31 215.19 156.29 204.64 164.15 191.08 C 172.20 177.31 174.79 160.45 171.16 144.91 C 167.12 126.42 154.23 110.15 137.24 101.84 C 125.68 96.08 112.36 94.01 99.59 95.88 Z" />
</g>
</svg>
