<?xml version="1.0" encoding="UTF-8" ?>
<!DOCTYPE svg PUBLIC "-//W3C//DTD SVG 1.1//EN" "http://www.w3.org/Graphics/SVG/1.1/DTD/svg11.dtd">
<svg width="268pt" height="268pt" viewBox="0 0 268 268" version="1.1" xmlns="http://www.w3.org/2000/svg">
<g id="#ffffffff">
<path fill="#ffffff" opacity="1.00" d=" M 0.00 0.00 L 268.00 0.00 L 268.00 268.00 L 0.00 268.00 L 0.00 0.00 M 160.44 28.38 C 149.85 36.40 142.42 48.39 139.68 61.36 C 136.68 75.20 139.13 90.27 146.72 102.26 C 131.95 117.13 117.11 131.94 102.26 146.73 C 86.09 136.47 64.54 135.80 47.58 144.55 C 32.16 152.17 20.79 167.29 17.59 184.17 C 14.32 200.14 18.64 217.44 28.86 230.12 C 37.22 240.73 49.54 248.13 62.84 250.51 C 78.41 253.55 95.14 249.36 107.60 239.61 C 117.94 231.75 125.27 220.11 128.13 207.46 C 131.40 193.39 128.98 177.99 121.28 165.73 C 136.07 150.88 150.87 136.05 165.74 121.28 C 183.19 132.36 206.81 132.17 224.30 121.26 C 237.42 113.38 246.99 99.88 250.10 84.90 C 253.76 68.89 249.61 51.41 239.54 38.50 C 231.31 27.81 219.09 20.25 205.84 17.70 C 190.11 14.40 173.09 18.53 160.44 28.38 Z" />
<path fill="#ffffff" opacity="1.00" d=" M 188.36 44.17 C 203.49 40.29 220.33 50.69 223.66 65.93 C 227.82 80.74 218.14 97.47 203.35 101.47 C 188.20 106.44 170.40 96.62 166.44 81.19 C 161.40 65.53 172.26 47.34 188.36 44.17 Z" />
<path fill="#ffffff" opacity="1.00" d=" M 67.43 165.80 C 75.06 164.29 83.21 166.02 89.65 170.36 C 98.33 176.11 103.43 186.71 102.65 197.08 C 101.87 210.71 90.57 222.71 77.02 224.32 C 62.21 226.60 46.92 215.92 44.10 201.18 C 40.22 185.54 51.59 168.49 67.43 165.80 Z" />
</g>
<g id="#000000ff">
<path fill="#000000" opacity="1.00" d=" M 160.44 28.38 C 173.09 18.53 190.11 14.40 205.84 17.70 C 219.09 20.25 231.31 27.81 239.54 38.50 C 249.61 51.41 253.76 68.89 250.10 84.90 C 246.99 99.88 237.42 113.38 224.30 121.26 C 206.81 132.17 183.19 132.36 165.74 121.28 C 150.87 136.05 136.07 150.88 121.28 165.73 C 128.98 177.99 131.40 193.39 128.13 207.46 C 125.27 220.11 117.94 231.75 107.60 239.61 C 95.14 249.36 78.41 253.55 62.84 250.51 C 49.54 248.13 37.22 240.73 28.86 230.12 C 18.64 217.44 14.32 200.14 17.59 184.17 C 20.79 167.29 32.16 152.17 47.58 144.55 C 64.54 135.80 86.09 136.47 102.26 146.73 C 117.11 131.94 131.95 117.13 146.72 102.26 C 139.13 90.27 136.68 75.20 139.68 61.36 C 142.42 48.39 149.85 36.40 160.44 28.38 M 188.36 44.17 C 172.26 47.34 161.40 65.53 166.44 81.19 C 170.40 96.62 188.20 106.44 203.35 101.47 C 218.14 97.47 227.82 80.74 223.66 65.93 C 220.33 50.69 203.49 40.29 188.36 44.17 M 67.43 165.80 C 51.59 168.49 40.22 185.54 44.10 201.18 C 46.92 215.92 62.21 226.60 77.02 224.32 C 90.57 222.71 101.87 210.71 102.65 197.08 C 103.43 186.71 98.33 176.11 89.65 170.36 C 83.21 166.02 75.06 164.29 67.43 165.80 Z" />
</g>
</svg>
