<?xml version="1.0" encoding="UTF-8" ?>
<!DOCTYPE svg PUBLIC "-//W3C//DTD SVG 1.1//EN" "http://www.w3.org/Graphics/SVG/1.1/DTD/svg11.dtd">
<svg width="268pt" height="268pt" viewBox="0 0 268 268" version="1.1" xmlns="http://www.w3.org/2000/svg">
<g id="#ffffffff">
<path fill="#ffffff" opacity="1.00" d=" M 0.00 0.00 L 268.00 0.00 L 268.00 268.00 L 0.00 268.00 L 0.00 0.00 M 25.50 227.86 C 97.83 227.87 170.16 227.86 242.49 227.87 C 206.26 165.25 170.11 102.60 134.00 39.91 C 97.89 102.59 61.74 165.26 25.50 227.86 Z" />
<path fill="#ffffff" opacity="1.00" d=" M 133.57 94.20 C 133.78 94.19 134.21 94.19 134.42 94.19 C 154.82 129.94 175.59 165.50 196.07 201.21 C 154.70 201.20 113.33 201.20 71.97 201.20 C 92.38 165.47 113.20 129.95 133.57 94.20 Z" />
</g>
<g id="#000000ff">
<path fill="#000000" opacity="1.00" d=" M 25.50 227.86 C 61.74 165.26 97.89 102.59 134.00 39.91 C 170.11 102.60 206.26 165.25 242.49 227.87 C 170.16 227.86 97.83 227.87 25.50 227.86 M 133.57 94.20 C 113.20 129.95 92.38 165.47 71.97 201.20 C 113.33 201.20 154.70 201.20 196.07 201.21 C 175.59 165.50 154.82 129.94 134.42 94.19 C 134.21 94.19 133.78 94.19 133.57 94.20 Z" />
</g>
</svg>
