<?xml version="1.0" encoding="UTF-8" ?>
<!DOCTYPE svg PUBLIC "-//W3C//DTD SVG 1.1//EN" "http://www.w3.org/Graphics/SVG/1.1/DTD/svg11.dtd">
<svg width="268pt" height="268pt" viewBox="0 0 268 268" version="1.1" xmlns="http://www.w3.org/2000/svg">
<g id="#ffffffff">
<path fill="#ffffff" opacity="1.00" d=" M 0.00 0.00 L 268.00 0.00 L 268.00 268.00 L 0.00 268.00 L 0.00 0.00 M 59.77 30.64 C 59.73 83.29 59.88 135.95 59.69 188.61 C 65.73 188.88 71.77 188.67 77.80 188.71 C 68.55 204.68 59.46 220.76 50.04 236.63 C 54.03 236.96 58.03 236.73 62.02 236.80 C 109.55 236.78 157.09 236.83 204.63 236.77 C 204.53 227.88 204.61 218.99 204.58 210.10 C 168.52 210.16 132.46 210.08 96.40 210.14 C 100.57 203.00 104.61 195.79 108.85 188.70 C 145.21 188.76 181.57 188.73 217.92 188.72 C 217.88 136.03 217.83 83.34 217.95 30.66 C 165.22 30.61 112.50 30.64 59.77 30.64 Z" />
<path fill="#ffffff" opacity="1.00" d=" M 86.57 57.46 C 121.46 57.42 156.35 57.45 191.23 57.44 C 191.19 92.35 191.25 127.25 191.21 162.16 C 168.87 161.74 146.54 162.06 124.20 162.14 C 132.89 146.91 141.54 131.64 150.58 116.60 C 142.93 111.91 135.08 107.53 127.28 103.07 C 115.99 122.52 104.81 142.04 93.53 161.49 C 91.50 162.80 88.86 161.93 86.60 161.95 C 86.59 127.12 86.65 92.29 86.57 57.46 Z" />
</g>
<g id="#000000ff">
<path fill="#000000" opacity="1.00" d=" M 59.77 30.64 C 112.50 30.64 165.22 30.61 217.95 30.66 C 217.83 83.34 217.88 136.03 217.92 188.72 C 181.57 188.73 145.21 188.76 108.85 188.70 C 104.61 195.79 100.57 203.00 96.40 210.14 C 132.46 210.08 168.52 210.16 204.58 210.10 C 204.61 218.99 204.53 227.88 204.63 236.77 C 157.09 236.83 109.55 236.78 62.02 236.80 C 58.03 236.73 54.03 236.96 50.04 236.63 C 59.46 220.76 68.55 204.68 77.80 188.71 C 71.77 188.67 65.73 188.88 59.69 188.61 C 59.88 135.95 59.73 83.29 59.77 30.64 M 86.57 57.46 C 86.65 92.29 86.59 127.12 86.60 161.95 C 88.86 161.93 91.50 162.80 93.53 161.49 C 104.81 142.04 115.99 122.52 127.28 103.07 C 135.08 107.53 142.93 111.91 150.58 116.60 C 141.54 131.64 132.89 146.91 124.20 162.14 C 146.54 162.06 168.87 161.74 191.21 162.16 C 191.25 127.25 191.19 92.35 191.23 57.44 C 156.35 57.45 121.46 57.42 86.57 57.46 Z" />
</g>
</svg>
