<?xml version="1.0" encoding="UTF-8" ?>
<!DOCTYPE svg PUBLIC "-//W3C//DTD SVG 1.1//EN" "http://www.w3.org/Graphics/SVG/1.1/DTD/svg11.dtd">
<svg width="268pt" height="268pt" viewBox="0 0 268 268" version="1.1" xmlns="http://www.w3.org/2000/svg">
<g id="#ffffffff">
<path fill="#ffffff" opacity="1.00" d=" M 0.00 0.00 L 268.00 0.00 L 268.00 268.00 L 0.00 268.00 L 0.00 0.00 M 48.39 208.19 C 105.41 208.14 162.44 208.14 219.47 208.19 C 219.66 199.24 219.47 190.27 219.57 181.31 C 177.99 181.32 136.42 181.33 94.84 181.31 C 115.65 145.30 136.48 109.31 157.18 73.25 C 149.39 68.89 141.71 64.32 133.94 59.92 C 105.49 109.38 76.92 158.77 48.39 208.19 Z" />
</g>
<g id="#000000ff">
<path fill="#000000" opacity="1.00" d=" M 48.39 208.19 C 76.92 158.77 105.49 109.38 133.94 59.92 C 141.71 64.32 149.39 68.89 157.18 73.25 C 136.48 109.31 115.65 145.30 94.84 181.31 C 136.42 181.33 177.99 181.32 219.57 181.31 C 219.47 190.27 219.66 199.24 219.47 208.19 C 162.44 208.14 105.41 208.14 48.39 208.19 Z" />
</g>
</svg>
